<svg width="141" height="164" viewBox="0 0 141 164" fill="none" xmlns="http://www.w3.org/2000/svg">
<path d="M122.633 53.6313V138.092C122.633 147.022 115.153 154.304 105.981 154.304H79.7738C77.2623 154.304 75.2422 156.271 75.2422 158.716C75.2422 161.161 77.2623 163.128 79.7738 163.128H105.981C120.176 163.128 131.751 151.912 131.751 138.039V53.5781H122.633V53.6313Z" fill="url(#paint0_linear_2081_4312)"/>
<path d="M63.0625 154.302H36.2001C27.0276 154.302 19.5477 147.02 19.5477 138.09V53.6289H10.4297V138.09C10.4297 151.91 21.9499 163.178 36.2001 163.178H63.0625C65.5741 163.178 67.5941 161.212 67.5941 158.767C67.5941 156.321 65.5741 154.355 63.0625 154.355V154.302Z" fill="url(#paint1_linear_2081_4312)"/>
<path d="M127.597 4.41016H87.7397C82.9452 4.41016 79.0586 8.19396 79.0586 12.8615V45.1789C79.0586 49.8465 82.9452 53.6304 87.7397 53.6304H127.597C132.391 53.6304 136.278 49.8465 136.278 45.1789V12.8615C136.278 8.19396 132.391 4.41016 127.597 4.41016Z" fill="white"/>
<path d="M127.156 58.0436H88.173C80.6384 58.0436 74.5234 52.0904 74.5234 44.7553V13.2884C74.5234 5.95319 80.6384 0 88.173 0H127.156C134.691 0 140.806 5.95319 140.806 13.2884V44.7553C140.806 52.0904 134.691 58.0436 127.156 58.0436ZM88.173 8.87663C85.6615 8.87663 83.6413 10.8433 83.6413 13.2884V44.7553C83.6413 47.2003 85.6615 49.167 88.173 49.167H127.156C129.668 49.167 131.688 47.2003 131.688 44.7553V13.2884C131.688 10.8433 129.668 8.87663 127.156 8.87663H88.173Z" fill="url(#paint2_linear_2081_4312)"/>
<path d="M53.0185 4.41016H13.1616C8.36712 4.41016 4.48047 8.19396 4.48047 12.8615V45.1789C4.48047 49.8465 8.36712 53.6304 13.1616 53.6304H53.0185C57.8129 53.6304 61.6996 49.8465 61.6996 45.1789V12.8615C61.6996 8.19396 57.8129 4.41016 53.0185 4.41016Z" fill="white"/>
<path d="M52.6327 58.0436H13.6496C6.11501 58.0436 0 52.0904 0 44.7553V13.2884C0 5.95319 6.11501 0 13.6496 0H52.6327C60.1673 0 66.2823 5.95319 66.2823 13.2884V44.7553C66.2823 52.0904 60.1673 58.0436 52.6327 58.0436ZM13.5949 8.87663C11.0834 8.87663 9.06317 10.8433 9.06317 13.2884V44.7553C9.06317 47.2003 11.0834 49.167 13.5949 49.167H52.578C55.0896 49.167 57.1098 47.2003 57.1098 44.7553V13.2884C57.1098 10.8433 55.0896 8.87663 52.578 8.87663H13.5949Z" fill="url(#paint3_linear_2081_4312)"/>
<path d="M120.231 29.1296C120.231 35.4549 114.935 40.6107 108.438 40.6107C101.941 40.6107 96.6445 35.4549 96.6445 29.1296C96.6445 27.6413 96.9175 26.2593 97.4635 24.9836L108.492 29.1296L106.581 17.8079C107.182 17.7016 107.837 17.6484 108.492 17.6484C114.99 17.6484 120.286 22.8043 120.286 29.1296H120.231Z" fill="url(#paint4_linear_2081_4312)"/>
<path d="M108.435 29.1303L97.4062 24.9844C98.8804 21.2636 102.32 18.4464 106.524 17.8086L108.435 29.1303Z" fill="url(#paint5_linear_2081_4312)"/>
<path d="M45.3717 29.0241C45.3717 35.3494 40.0756 40.5053 33.5784 40.5053C27.0812 40.5053 21.7852 35.3494 21.7852 29.0241C21.7852 27.5358 22.0581 26.1539 22.6041 24.8782L33.6329 29.0241L31.7221 17.7024C32.3227 17.5961 32.9777 17.543 33.6329 17.543C40.1301 17.543 45.4262 22.6989 45.4262 29.0241H45.3717Z" fill="url(#paint6_linear_2081_4312)"/>
<path d="M33.5327 29.0248L22.5039 24.8789C23.9781 21.1581 27.4177 18.341 31.6217 17.7031L33.5327 29.0248Z" fill="url(#paint7_linear_2081_4312)"/>
<path d="M46.0296 113.694L59.6792 100.406C60.8257 99.2895 60.8257 97.5354 59.6792 96.4192C58.5326 95.303 56.7309 95.303 55.5843 96.4192L39.9146 111.674C38.768 112.791 38.768 114.545 39.9146 115.661L55.5843 130.916C56.1303 131.447 56.8947 131.766 57.6591 131.766C58.4234 131.766 59.1331 131.501 59.7337 130.916C60.8802 129.8 60.8802 128.046 59.7337 126.929L46.0841 113.641L46.0296 113.694Z" fill="url(#paint8_linear_2081_4312)"/>
<path d="M103.414 111.674L87.7439 96.4192C86.5973 95.303 84.7956 95.303 83.649 96.4192C82.5024 97.5354 82.5024 99.2895 83.649 100.406L97.2986 113.694L83.649 126.982C82.5024 128.099 82.5024 129.853 83.649 130.969C84.195 131.501 84.9594 131.819 85.7237 131.819C86.4881 131.819 87.1979 131.554 87.7985 130.969L103.468 115.714C104.615 114.598 104.615 112.844 103.468 111.727L103.414 111.674Z" fill="url(#paint9_linear_2081_4312)"/>
<path d="M62.8973 116.779C64.6462 116.779 66.0639 115.399 66.0639 113.696C66.0639 111.994 64.6462 110.613 62.8973 110.613C61.1483 110.613 59.7305 111.994 59.7305 113.696C59.7305 115.399 61.1483 116.779 62.8973 116.779Z" fill="url(#paint10_linear_2081_4312)"/>
<path d="M71.4754 116.779C73.2243 116.779 74.642 115.399 74.642 113.696C74.642 111.994 73.2243 110.613 71.4754 110.613C69.7265 110.613 68.3086 111.994 68.3086 113.696C68.3086 115.399 69.7265 116.779 71.4754 116.779Z" fill="url(#paint11_linear_2081_4312)"/>
<path d="M80.0416 116.779C81.7906 116.779 83.2084 115.399 83.2084 113.696C83.2084 111.994 81.7906 110.613 80.0416 110.613C78.2927 110.613 76.875 111.994 76.875 113.696C76.875 115.399 78.2927 116.779 80.0416 116.779Z" fill="url(#paint12_linear_2081_4312)"/>
<defs>
<linearGradient id="paint0_linear_2081_4312" x1="75.1876" y1="108.379" x2="131.751" y2="108.379" gradientUnits="userSpaceOnUse">
<stop stop-color="#442853"/>
<stop offset="1" stop-color="#2E2853"/>
</linearGradient>
<linearGradient id="paint1_linear_2081_4312" x1="10.4843" y1="-1197.92" x2="67.5941" y2="-1197.92" gradientUnits="userSpaceOnUse">
<stop stop-color="#442853"/>
<stop offset="1" stop-color="#2E2853"/>
</linearGradient>
<linearGradient id="paint2_linear_2081_4312" x1="74.5234" y1="29.0218" x2="140.806" y2="29.0218" gradientUnits="userSpaceOnUse">
<stop stop-color="#442853"/>
<stop offset="1" stop-color="#2E2853"/>
</linearGradient>
<linearGradient id="paint3_linear_2081_4312" x1="-0.0545982" y1="29.0218" x2="66.2823" y2="29.0218" gradientUnits="userSpaceOnUse">
<stop stop-color="#442853"/>
<stop offset="1" stop-color="#2E2853"/>
</linearGradient>
<linearGradient id="paint4_linear_2081_4312" x1="96.6445" y1="29.1296" x2="120.231" y2="29.1296" gradientUnits="userSpaceOnUse">
<stop stop-color="#442853"/>
<stop offset="1" stop-color="#2E2853"/>
</linearGradient>
<linearGradient id="paint5_linear_2081_4312" x1="97.4062" y1="23.4429" x2="108.435" y2="23.4429" gradientUnits="userSpaceOnUse">
<stop stop-color="#442853"/>
<stop offset="1" stop-color="#2E2853"/>
</linearGradient>
<linearGradient id="paint6_linear_2081_4312" x1="21.7306" y1="29.0241" x2="45.3716" y2="29.0241" gradientUnits="userSpaceOnUse">
<stop stop-color="#442853"/>
<stop offset="1" stop-color="#2E2853"/>
</linearGradient>
<linearGradient id="paint7_linear_2081_4312" x1="22.5039" y1="23.3374" x2="33.5327" y2="23.3374" gradientUnits="userSpaceOnUse">
<stop stop-color="#442853"/>
<stop offset="1" stop-color="#2E2853"/>
</linearGradient>
<linearGradient id="paint8_linear_2081_4312" x1="39.041" y1="113.694" x2="60.498" y2="113.694" gradientUnits="userSpaceOnUse">
<stop stop-color="#442853"/>
<stop offset="1" stop-color="#2E2853"/>
</linearGradient>
<linearGradient id="paint9_linear_2081_4312" x1="82.7754" y1="113.694" x2="104.287" y2="113.694" gradientUnits="userSpaceOnUse">
<stop stop-color="#442853"/>
<stop offset="1" stop-color="#2E2853"/>
</linearGradient>
<linearGradient id="paint10_linear_2081_4312" x1="59.7851" y1="113.696" x2="66.0639" y2="113.696" gradientUnits="userSpaceOnUse">
<stop stop-color="#442853"/>
<stop offset="1" stop-color="#2E2853"/>
</linearGradient>
<linearGradient id="paint11_linear_2081_4312" x1="68.3086" y1="113.696" x2="74.642" y2="113.696" gradientUnits="userSpaceOnUse">
<stop stop-color="#442853"/>
<stop offset="1" stop-color="#2E2853"/>
</linearGradient>
<linearGradient id="paint12_linear_2081_4312" x1="76.875" y1="113.696" x2="83.1538" y2="113.696" gradientUnits="userSpaceOnUse">
<stop stop-color="#442853"/>
<stop offset="1" stop-color="#2E2853"/>
</linearGradient>
</defs>
</svg>
