<svg width="91" height="40" viewBox="0 0 91 40" fill="none" xmlns="http://www.w3.org/2000/svg">
<g clip-path="url(#clip0_3994_2207)">
<path d="M28.7316 13.0015V33.4733C28.7316 35.6436 26.9851 37.4037 24.8315 37.4037H18.6868C18.098 37.4037 17.6199 37.8855 17.6199 38.4788C17.6199 39.0721 18.098 39.554 18.6868 39.554H24.8315C28.1626 39.554 30.8615 36.8342 30.8615 33.4773V13.0054H28.7277L28.7316 13.0015Z" fill="white"/>
<path d="M14.7827 37.4037H8.49581C6.34222 37.4037 4.59564 35.6436 4.59564 33.4733V13.0015H2.46181V33.4733C2.46181 36.8302 5.16071 39.55 8.49186 39.55H14.7788C15.3675 39.55 15.8457 39.0682 15.8457 38.4748C15.8457 37.8815 15.3675 37.3997 14.7788 37.3997L14.7827 37.4037Z" fill="white"/>
<path d="M29.7985 14.0767H20.6626C18.9002 14.0767 17.4658 12.6312 17.4658 10.8552V3.2215C17.4658 1.4455 18.9002 0 20.6626 0H29.7985C31.5609 0 32.9953 1.4455 32.9953 3.2215V10.8512C32.9953 12.6272 31.5609 14.0727 29.7985 14.0727V14.0767ZM20.6626 2.15032C20.0738 2.15032 19.5957 2.63216 19.5957 3.22549V10.8552C19.5957 11.4485 20.0738 11.9303 20.6626 11.9303H29.7985C30.3873 11.9303 30.8655 11.4485 30.8655 10.8552V3.2215C30.8655 2.62817 30.3873 2.14634 29.7985 2.14634H20.6626V2.15032Z" fill="white"/>
<path d="M12.3328 14.0767H3.1968C1.43441 14.0767 0 12.6312 0 10.8552V3.2215C0 1.4455 1.43441 0 3.1968 0H12.3328C14.0951 0 15.5295 1.4455 15.5295 3.2215V10.8512C15.5295 12.6272 14.0951 14.0727 12.3328 14.0727V14.0767ZM3.1968 2.15032C2.60802 2.15032 2.12988 2.63216 2.12988 3.22549V10.8552C2.12988 11.4485 2.60802 11.9303 3.1968 11.9303H12.3328C12.9215 11.9303 13.3997 11.4485 13.3997 10.8552V3.2215C13.3997 2.62817 12.9215 2.14634 12.3328 2.14634H3.1968V2.15032Z" fill="white"/>
<path d="M28.1745 7.0563C28.1745 8.59737 26.9377 9.84376 25.4084 9.84376C23.8792 9.84376 22.6423 8.59737 22.6423 7.0563C22.6423 6.7019 22.7095 6.36342 22.8281 6.04884L25.4084 7.0563L24.9619 4.30867C25.1081 4.28477 25.2543 4.27283 25.4084 4.27283C26.9377 4.27283 28.1745 5.51922 28.1745 7.06028V7.0563Z" fill="#7599CB"/>
<path d="M25.4084 7.05635L22.8281 6.04889C23.1758 5.14495 23.9819 4.46402 24.9619 4.30872L25.4084 7.05635Z" fill="#7599CB"/>
<path d="M10.6336 7.03628C10.6336 8.57735 9.39676 9.82374 7.86752 9.82374C6.33827 9.82374 5.10144 8.57735 5.10144 7.03628C5.10144 6.68188 5.16862 6.3434 5.28716 6.02882L7.86752 7.03628L7.42099 4.28865C7.5672 4.26475 7.71341 4.25281 7.86752 4.25281C9.39676 4.25281 10.6336 5.4992 10.6336 7.04026V7.03628Z" fill="#7599CB"/>
<path d="M7.86751 7.03633L5.28716 6.02887C5.63489 5.12493 6.441 4.444 7.42099 4.2887L7.86751 7.03633Z" fill="#7599CB"/>
<path d="M10.7916 27.564L13.9845 24.3465C14.2492 24.0797 14.2492 23.6456 13.9845 23.3788C13.7197 23.112 13.289 23.112 13.0243 23.3788L9.35329 27.0782C9.08854 27.345 9.08854 27.779 9.35329 28.0458L13.0243 31.7452C13.1586 31.8806 13.3285 31.9443 13.5024 31.9443C13.6763 31.9443 13.8501 31.8766 13.9805 31.7452C14.2453 31.4784 14.2453 31.0443 13.9805 30.7775L10.7877 27.56L10.7916 27.564Z" fill="#7599CB"/>
<path d="M24.2308 27.0822L20.5599 23.3828C20.2951 23.116 19.8644 23.116 19.5996 23.3828C19.3349 23.6496 19.3349 24.0837 19.5996 24.3505L22.7925 27.568L19.5996 30.7855C19.3349 31.0523 19.3349 31.4864 19.5996 31.7532C19.734 31.8886 19.9039 31.9523 20.0778 31.9523C20.2516 31.9523 20.4255 31.8846 20.5559 31.7532L24.2269 28.0538C24.4916 27.787 24.4916 27.353 24.2269 27.0862L24.2308 27.0822Z" fill="#7599CB"/>
<path d="M14.7471 28.3086C15.1553 28.3086 15.4861 27.9752 15.4861 27.564C15.4861 27.1527 15.1553 26.8193 14.7471 26.8193C14.339 26.8193 14.0082 27.1527 14.0082 27.564C14.0082 27.9752 14.339 28.3086 14.7471 28.3086Z" fill="#7599CB"/>
<path d="M16.7506 28.3086C17.1587 28.3086 17.4895 27.9752 17.4895 27.564C17.4895 27.1527 17.1587 26.8193 16.7506 26.8193C16.3425 26.8193 16.0116 27.1527 16.0116 27.564C16.0116 27.9752 16.3425 28.3086 16.7506 28.3086Z" fill="#7599CB"/>
<path d="M18.754 28.3086C19.1621 28.3086 19.493 27.9752 19.493 27.564C19.493 27.1527 19.1621 26.8193 18.754 26.8193C18.3459 26.8193 18.0151 27.1527 18.0151 27.564C18.0151 27.9752 18.3459 28.3086 18.754 28.3086Z" fill="#7599CB"/>
<path d="M41.3923 38.8652C41.3331 38.8054 41.2659 38.7576 41.1869 38.7218C41.1078 38.686 41.0249 38.67 40.934 38.67C40.8431 38.67 40.7601 38.686 40.6811 38.7218C40.602 38.7576 40.5309 38.8054 40.4716 38.8652C40.4124 38.9249 40.3649 38.9966 40.3294 39.0762C40.2938 39.1559 40.278 39.2435 40.278 39.3351C40.278 39.4266 40.2938 39.5142 40.3294 39.5939C40.3649 39.6735 40.4124 39.7452 40.4716 39.8049C40.5309 39.8647 40.5981 39.9125 40.6811 39.9483C40.7601 39.9841 40.847 40.0001 40.934 40.0001C41.0209 40.0001 41.1078 39.9841 41.1869 39.9483C41.2659 39.9125 41.3331 39.8647 41.3923 39.8049C41.4516 39.7452 41.499 39.6735 41.5346 39.5939C41.5702 39.5142 41.586 39.4266 41.586 39.3351C41.586 39.2435 41.5702 39.1559 41.5346 39.0762C41.499 38.9966 41.4516 38.9249 41.3923 38.8652Z" fill="white"/>
<path d="M42.973 38.8652C42.9137 38.8054 42.8465 38.7576 42.7675 38.7218C42.6885 38.686 42.6055 38.67 42.5146 38.67C42.4237 38.67 42.3407 38.686 42.2617 38.7218C42.1827 38.7576 42.1155 38.8054 42.0562 38.8652C41.997 38.9249 41.9495 38.9966 41.914 39.0762C41.8784 39.1559 41.8626 39.2435 41.8626 39.3351C41.8626 39.4266 41.8784 39.5142 41.914 39.5939C41.9495 39.6735 41.997 39.7452 42.0562 39.8049C42.1155 39.8647 42.1827 39.9125 42.2617 39.9483C42.3407 39.9841 42.4237 40.0001 42.5146 40.0001C42.6055 40.0001 42.6885 39.9841 42.7675 39.9483C42.8465 39.9125 42.9137 39.8647 42.973 39.8049C43.0323 39.7452 43.0797 39.6735 43.1152 39.5939C43.1508 39.5142 43.1666 39.4266 43.1666 39.3351C43.1666 39.2435 43.1508 39.1559 43.1152 39.0762C43.0797 38.9966 43.0323 38.9249 42.973 38.8652Z" fill="white"/>
<path d="M51.0894 30.3833L49.2401 33.3738C49.742 33.6606 50.1253 33.9194 50.39 34.1503C50.6548 34.3813 50.7852 34.5844 50.7852 34.7636C50.7852 34.8114 50.7773 34.8552 50.7615 34.899C50.7457 34.9428 50.714 34.9826 50.6706 35.0145C50.6271 35.0463 50.5678 35.0742 50.4888 35.0941C50.4098 35.114 50.3149 35.126 50.1964 35.126H47.0826C46.9522 35.126 46.8455 35.0901 46.7704 35.0224C46.6914 34.9507 46.6519 34.8353 46.6519 34.672V32.8124H45.174C44.4983 32.8124 43.9885 32.9597 43.6447 33.2504C43.301 33.5411 43.1271 33.9791 43.1271 34.5685V35.7472C43.1271 35.8826 43.0955 36.01 43.0362 36.1294C42.9769 36.2489 42.886 36.3485 42.7675 36.4321C42.649 36.5157 42.5067 36.5834 42.3368 36.6312C42.1669 36.679 41.9772 36.7029 41.7599 36.7029C41.5425 36.7029 41.341 36.683 41.175 36.6471C41.0091 36.6113 40.8668 36.5635 40.7483 36.5038C40.6297 36.444 40.5349 36.3763 40.4558 36.2967C40.3808 36.221 40.3215 36.1374 40.278 36.0538C40.2346 35.9702 40.2029 35.8865 40.1871 35.8029C40.1713 35.7193 40.1634 35.6436 40.1634 35.572C40.1634 35.4923 40.1753 35.4047 40.195 35.3091C40.2148 35.2136 40.2464 35.114 40.282 35.0145C40.3215 34.9149 40.365 34.8154 40.4203 34.7158C40.4717 34.6163 40.5309 34.5247 40.5942 34.441L39.468 33.8557C39.3692 33.9791 39.2743 34.1145 39.1874 34.2579C39.1005 34.4012 39.0293 34.5486 38.9661 34.7039C38.9029 34.8552 38.8555 35.0105 38.8199 35.1698C38.7843 35.329 38.7646 35.4804 38.7646 35.6317C38.7646 35.7551 38.7804 35.8945 38.816 36.0538C38.8515 36.2131 38.9108 36.3763 38.9977 36.5436C39.0847 36.7108 39.1993 36.8741 39.3455 37.0334C39.4917 37.1927 39.6734 37.336 39.8947 37.4634C40.116 37.5909 40.3808 37.6904 40.685 37.7701C40.9933 37.8497 41.3489 37.8855 41.752 37.8855C42.1866 37.8855 42.5739 37.8258 42.9137 37.7063C43.2535 37.5869 43.542 37.4276 43.7791 37.2285C44.0162 37.0294 44.194 36.8064 44.3205 36.5515C44.4469 36.2967 44.5062 36.0379 44.5062 35.7711V34.6481C44.5062 34.3972 44.5575 34.218 44.6563 34.1145C44.7551 34.011 44.8934 33.9592 45.0633 33.9592H45.257V34.895C45.257 35.1459 45.2965 35.3569 45.3716 35.5281C45.4506 35.6994 45.5494 35.8388 45.6798 35.9423C45.8062 36.0458 45.9524 36.1215 46.1145 36.1693C46.2765 36.2131 46.4424 36.237 46.6123 36.237H50.2912C50.6153 36.237 50.8919 36.1971 51.1211 36.1215C51.3502 36.0418 51.5399 35.9383 51.6861 35.8069C51.8323 35.6755 51.939 35.5202 52.0062 35.341C52.0734 35.1618 52.1089 34.9746 52.1089 34.7755C52.1089 34.6043 52.0813 34.441 52.0299 34.2857C51.9746 34.1304 51.8995 33.9791 51.7968 33.8358C51.694 33.6924 51.5715 33.557 51.4253 33.4296C51.2791 33.3022 51.1131 33.1787 50.9314 33.0632L52.1445 31.0483L51.0855 30.3833H51.0894Z" fill="white"/>
<path d="M53.7488 31.5541C53.8081 31.6138 53.8753 31.6616 53.9583 31.6974C54.0373 31.7333 54.1242 31.7492 54.2112 31.7492C54.2981 31.7492 54.385 31.7333 54.4641 31.6974C54.5431 31.6616 54.6103 31.6138 54.6695 31.5541C54.7288 31.4944 54.7762 31.4267 54.8118 31.343C54.8474 31.2634 54.8632 31.1758 54.8632 31.0842C54.8632 30.9926 54.8474 30.905 54.8118 30.8254C54.7762 30.7457 54.7288 30.674 54.6695 30.6143C54.6103 30.5546 54.5431 30.5068 54.4641 30.471C54.385 30.4351 54.302 30.4192 54.2112 30.4192C54.1203 30.4192 54.0373 30.4351 53.9583 30.471C53.8792 30.5068 53.8081 30.5546 53.7488 30.6143C53.6896 30.674 53.6421 30.7457 53.6066 30.8254C53.571 30.905 53.5552 30.9926 53.5552 31.0842C53.5552 31.1758 53.571 31.2634 53.6066 31.343C53.6421 31.4227 53.6896 31.4944 53.7488 31.5541Z" fill="white"/>
<path d="M59.3087 35.1299H57.0484C56.9061 35.1299 56.7599 35.114 56.6018 35.0861C56.4477 35.0583 56.3015 35.0065 56.1632 34.9308C56.1672 34.887 56.1711 34.8432 56.1751 34.8034C56.1751 34.7636 56.1751 34.7198 56.1751 34.676C56.1751 34.4968 56.1356 34.3057 56.0565 34.1105C55.9775 33.9154 55.8669 33.7123 55.7207 33.5053C55.5744 33.2982 55.4006 33.0871 55.1911 32.8681C54.9817 32.6491 54.7486 32.4301 54.4878 32.2071L53.5236 33.1588C53.6935 33.2902 53.8595 33.4256 54.0254 33.569C54.1914 33.7123 54.3376 33.8557 54.472 33.995C54.6024 34.1344 54.7091 34.2658 54.7881 34.3853C54.8671 34.5087 54.9106 34.6123 54.9106 34.6959C54.9106 34.7477 54.9027 34.7994 54.8869 34.8512C54.8711 34.903 54.8395 34.9468 54.796 34.9906C54.7525 35.0304 54.6893 35.0662 54.6142 35.0901C54.5352 35.118 54.4404 35.1299 54.3218 35.1299H52.7293V36.237H54.3021C54.6814 36.237 54.9896 36.1892 55.2346 36.0936C55.4796 35.998 55.6772 35.8706 55.8234 35.7113C55.9973 35.8786 56.1869 36.006 56.4003 36.0976C56.6137 36.1892 56.8231 36.237 57.0326 36.237H60.6996V30.6461H59.3047V35.1299H59.3087Z" fill="white"/>
<path d="M63.2483 30.6461H61.8613V36.237H63.2483V30.6461Z" fill="white"/>
<path d="M67.1525 35.576C67.1525 35.7273 67.1446 35.8667 67.1327 35.9981C67.1208 36.1295 67.0853 36.249 67.026 36.3605C66.9667 36.468 66.8758 36.5635 66.7534 36.6472C66.6309 36.7308 66.457 36.7945 66.2318 36.8423L66.3977 38.013C66.8047 37.9493 67.1485 37.8458 67.4212 37.7024C67.6938 37.5591 67.9151 37.3799 68.0811 37.1609C68.247 36.9418 68.3656 36.687 68.4328 36.3883C68.5039 36.0937 68.5394 35.7592 68.5394 35.3809V32.8164H67.1525V35.572V35.576Z" fill="white"/>
<path d="M87.0643 35.13H86.2739C86.1356 35.13 85.9894 35.114 85.8393 35.0862C85.6891 35.0583 85.5429 35.0065 85.4086 34.9388C85.4362 34.8114 85.452 34.684 85.452 34.5645C85.452 34.4331 85.4362 34.2937 85.4007 34.1543C85.369 34.011 85.3177 33.8756 85.2505 33.7402C85.1833 33.6088 85.1003 33.4814 85.0015 33.3619C84.8988 33.2424 84.7803 33.1389 84.6459 33.0473C84.5116 32.9557 84.3574 32.8841 84.1836 32.8323C84.0097 32.7805 83.82 32.7527 83.6146 32.7527C83.4644 32.7527 83.2905 32.7805 83.0969 32.8403C82.9033 32.9 82.7097 33.0035 82.5121 33.1509C82.3185 33.2982 82.1288 33.5013 81.951 33.7522C81.7731 34.003 81.623 34.3216 81.4965 34.7039C81.4768 34.7596 81.457 34.8114 81.4333 34.8592C81.4096 34.907 81.3819 34.9508 81.3424 34.9906C81.3069 35.0304 81.2594 35.0623 81.2081 35.0822C81.1567 35.1061 81.0895 35.118 81.0144 35.118H79.9831V34.6521C79.9831 34.3534 79.9436 34.0707 79.8685 33.8119C79.7934 33.5531 79.6749 33.3301 79.5129 33.1389C79.3508 32.9478 79.1533 32.8004 78.9083 32.6889C78.6672 32.5814 78.3788 32.5257 78.0429 32.5257C77.7663 32.5257 77.5094 32.5655 77.2723 32.6451C77.0352 32.7248 76.81 32.8323 76.6045 32.9677V30.6262H75.2175V34.5446C75.1622 34.6441 75.1108 34.7437 75.0634 34.8393C75.016 34.9348 74.9765 35.0264 74.9409 35.114H73.3089V34.6481C73.3089 34.3773 73.2813 34.1424 73.2299 33.9393C73.1746 33.7362 73.1035 33.561 73.0086 33.4137C72.9177 33.2663 72.811 33.1469 72.6885 33.0513C72.5661 32.9557 72.4396 32.8801 72.3053 32.8203C72.1709 32.7646 72.0365 32.7248 71.8943 32.7009C71.756 32.677 71.6216 32.669 71.4952 32.669C71.187 32.669 70.9064 32.7168 70.6575 32.8124C70.4085 32.908 70.1951 33.0354 70.0173 33.2026C69.8395 33.3699 69.7051 33.561 69.6103 33.784C69.5155 34.007 69.468 34.2459 69.468 34.5008C69.468 34.7915 69.5234 35.0423 69.634 35.2494C69.7447 35.4565 69.8948 35.6237 70.0766 35.7551C70.2584 35.8865 70.4678 35.9821 70.7009 36.0419C70.9341 36.1016 71.1712 36.1334 71.4122 36.1334C71.4675 36.1334 71.5307 36.1334 71.6019 36.1295C71.673 36.1295 71.7402 36.1215 71.8113 36.1135C71.7204 36.2131 71.6177 36.3007 71.4991 36.3724C71.3806 36.444 71.2462 36.5038 71.0921 36.5476C70.938 36.5954 70.7642 36.6312 70.5705 36.6551C70.3769 36.679 70.1635 36.6989 69.9225 36.7069L70.0568 37.8696C70.4401 37.8378 70.7997 37.782 71.1316 37.7103C71.4636 37.6347 71.7678 37.5351 72.0326 37.4077C72.3013 37.2803 72.5305 37.121 72.7202 36.9259C72.9098 36.7347 73.056 36.4998 73.1588 36.221H81.0658C81.2831 36.221 81.4768 36.1812 81.6388 36.1056C81.8008 36.0299 81.947 35.9264 82.0735 35.795H82.1011C82.1802 35.8587 82.275 35.9144 82.3817 35.9702C82.4884 36.0259 82.6069 36.0737 82.7373 36.1175C82.8677 36.1613 83.006 36.1971 83.1601 36.221C83.3103 36.2489 83.4763 36.2609 83.6501 36.2609C83.9702 36.2609 84.2468 36.2051 84.476 36.0976C84.7052 35.9901 84.8949 35.8507 85.045 35.6795C85.1319 35.7631 85.2268 35.8388 85.3256 35.9065C85.4244 35.9742 85.5271 36.0299 85.6298 36.0737C85.7326 36.1175 85.8432 36.1573 85.9499 36.1812C86.0566 36.2051 86.1633 36.2171 86.27 36.2171H88.467V30.6262H87.0722V35.11L87.0643 35.13ZM71.9417 35.13H71.5466C71.4162 35.13 71.3016 35.11 71.2028 35.0742C71.104 35.0384 71.021 34.9866 70.9578 34.9229C70.8946 34.8592 70.8471 34.7835 70.8116 34.6959C70.78 34.6123 70.7642 34.5167 70.7642 34.4172C70.7642 34.3256 70.78 34.2419 70.8116 34.1663C70.8432 34.0906 70.8827 34.0309 70.9341 33.9751C70.9854 33.9234 71.0447 33.8796 71.1158 33.8517C71.187 33.8238 71.262 33.8079 71.345 33.8079C71.5308 33.8079 71.677 33.8796 71.7837 34.019C71.8903 34.1583 71.9417 34.3773 71.9417 34.672V35.126V35.13ZM78.6119 35.13H76.0869C76.1699 34.9308 76.2765 34.7437 76.399 34.5685C76.5215 34.3933 76.6559 34.242 76.8021 34.1105C76.9483 33.9791 77.0985 33.8756 77.2565 33.7999C77.4146 33.7243 77.5687 33.6884 77.7189 33.6884C77.8572 33.6884 77.9836 33.7044 78.0943 33.7402C78.2049 33.7721 78.2958 33.8318 78.3748 33.9114C78.4499 33.9911 78.5092 34.0986 78.5487 34.234C78.5882 34.3654 78.6119 34.5366 78.6119 34.7357V35.126V35.13ZM84.1441 34.8313C84.1085 34.9109 84.0571 34.9747 83.9939 35.0264C83.9307 35.0742 83.8556 35.11 83.7687 35.1339C83.6817 35.1578 83.5908 35.1658 83.4881 35.1658C83.4249 35.1658 83.3538 35.1578 83.2787 35.1459C83.2036 35.1339 83.1285 35.114 83.0495 35.0901C82.9744 35.0662 82.8993 35.0384 82.8282 35.0105C82.7571 34.9826 82.6938 34.9508 82.6346 34.9149C82.7413 34.5526 82.8756 34.2897 83.0337 34.1305C83.1917 33.9712 83.3656 33.8915 83.5592 33.8915C83.658 33.8915 83.7489 33.9114 83.8279 33.9473C83.907 33.9831 83.9741 34.0309 84.0295 34.0906C84.0848 34.1504 84.1243 34.2181 84.152 34.2977C84.1796 34.3734 84.1954 34.457 84.1954 34.5366C84.1954 34.6521 84.1757 34.7517 84.1401 34.8313H84.1441Z" fill="white"/>
<path d="M91 30.6461H89.613V36.237H91V30.6461Z" fill="white"/>
<path d="M42.6213 13.7063L41.1553 13.1608C40.851 13.0413 40.7246 12.8621 40.7246 12.6232V12.5197C40.7246 12.221 40.9458 12.0657 41.3529 12.0657H43.4116C43.5302 12.0657 43.5815 12.0219 43.5815 11.8945V11.0662C43.5815 10.9706 43.5381 10.9308 43.4116 10.887C42.7754 10.7516 42.2933 10.6919 41.5899 10.6919C39.9382 10.6919 39.1439 11.1538 39.1439 12.4002V12.5874C39.1439 13.7501 39.5351 14.2001 40.2543 14.455L41.7204 14.9925C42.1274 15.1359 42.3131 15.2673 42.3131 15.5899V15.6735C42.3131 15.9642 42.0997 16.0916 41.7124 16.0916H39.2664C39.14 16.0916 39.0886 16.1434 39.0886 16.2708V17.0393C39.0886 17.1668 39.1321 17.2265 39.2506 17.2544C40.0884 17.4097 40.7601 17.4694 41.3608 17.4694C42.9611 17.4694 43.9016 16.9995 43.9016 15.7531V15.5301C43.9016 14.3793 43.463 14.0209 42.6292 13.7023L42.6213 13.7063Z" fill="#7599CB"/>
<path d="M51.5755 10.7356H50.3624C50.0581 10.7356 49.9316 10.8033 49.821 11.0781L48.3826 14.9009L46.9443 11.086C46.8415 10.8113 46.7072 10.7436 46.4029 10.7436H45.2016C45.1187 10.7436 45.0989 10.8033 45.091 10.879L44.4469 17.2821C44.439 17.3857 44.4904 17.4255 44.5734 17.4255H45.8853C45.9682 17.4255 46.0038 17.3817 46.0117 17.2821L46.3832 13.5589L47.7464 17.083C47.782 17.1786 47.8492 17.2184 47.9322 17.2184H48.8371C48.92 17.2184 48.9793 17.1746 49.0228 17.083L50.3861 13.5589L50.7496 17.2821C50.7575 17.3857 50.7931 17.4255 50.8761 17.4255H52.188C52.271 17.4255 52.3223 17.3817 52.3144 17.2821L51.6703 10.879C51.6624 10.7953 51.6545 10.7356 51.5676 10.7356H51.5755Z" fill="#7599CB"/>
<path d="M57.242 11.7233C56.9812 10.7755 56.8034 10.6919 55.7009 10.6919C54.5984 10.6919 54.4285 10.7676 54.1677 11.7233L52.6503 17.2902C52.6345 17.3858 52.674 17.4256 52.761 17.4256H54.0571C54.1321 17.4256 54.1401 17.3818 54.1677 17.2902L54.6419 15.566H56.7678L57.2262 17.2902C57.2499 17.3858 57.2697 17.4256 57.3447 17.4256H58.6409C58.7238 17.4256 58.7673 17.3818 58.7515 17.2902L57.242 11.7233ZM54.9896 14.2758L55.5587 12.1414C55.5942 12.0299 55.6021 12.006 55.693 12.006C55.8036 12.006 55.8116 12.0299 55.8471 12.1414L56.424 14.2758H54.9936H54.9896Z" fill="#7599CB"/>
<path d="M63.1535 14.9407C64.0782 14.7376 64.4061 14.1881 64.4061 12.9338C64.4061 11.2533 63.7779 10.6879 61.9483 10.6879C61.1422 10.6879 60.2965 10.7237 59.4667 10.7914C59.364 10.7994 59.3403 10.8272 59.3403 10.9109V17.2862C59.3403 17.3977 59.364 17.4216 59.4667 17.4216H60.7786C60.8814 17.4216 60.9051 17.3977 60.9051 17.2862V15.0403H61.4464L62.8255 17.2344C62.9085 17.3618 62.9678 17.4216 63.1654 17.4216H64.4852C64.6116 17.4216 64.6551 17.3459 64.5879 17.2503L63.1496 14.9367L63.1535 14.9407ZM61.7823 13.8656H60.909V12.0657H61.7823C62.5963 12.0657 62.8137 12.2887 62.8137 12.9895C62.8137 13.6904 62.5924 13.8695 61.7823 13.8695V13.8656Z" fill="#7599CB"/>
<path d="M69.8711 10.7437H64.908C64.825 10.7437 64.7815 10.7875 64.7815 10.8711V11.99C64.7815 12.0737 64.825 12.1175 64.908 12.1175H66.6032V17.2902C66.6032 17.3858 66.6466 17.4256 66.7296 17.4256H68.0415C68.1245 17.4256 68.168 17.3818 68.168 17.2902V12.1175H69.8711C69.9541 12.1175 70.0055 12.0737 70.0055 11.99V10.8711C70.0055 10.7875 69.9541 10.7437 69.8711 10.7437Z" fill="#7599CB"/>
<path d="M41.9693 20.9338C41.1039 20.9338 40.282 20.9697 39.4522 21.0374C39.3494 21.0453 39.3257 21.0732 39.3257 21.1568V27.5083C39.3257 27.5839 39.3494 27.6038 39.4522 27.6118C40.282 27.6795 41.1039 27.7153 41.9693 27.7153C44.0004 27.7153 44.7749 26.7158 44.7749 24.3425C44.7749 21.9692 44.0043 20.9378 41.9693 20.9378V20.9338ZM41.9693 26.3375H40.8945V22.3077H41.9456C42.8584 22.3077 43.1903 22.9209 43.1903 24.3385C43.1903 25.7561 42.8702 26.3375 41.9693 26.3375Z" fill="white"/>
<path d="M50.1885 20.9856H45.8023C45.7193 20.9856 45.6758 21.0374 45.6758 21.121V27.5321C45.6758 27.6277 45.7193 27.6675 45.8023 27.6675H50.1885C50.2715 27.6675 50.3229 27.6237 50.3229 27.5401V26.4211C50.3229 26.3375 50.2715 26.2937 50.1885 26.2937H47.2407V25.0035H49.9435C50.0265 25.0035 50.0779 24.9597 50.0779 24.8761V23.8169C50.0779 23.7332 50.0265 23.6894 49.9435 23.6894H47.2407V22.3594H50.1885C50.2715 22.3594 50.3229 22.3156 50.3229 22.232V21.113C50.3229 21.0294 50.2715 20.9856 50.1885 20.9856Z" fill="white"/>
<path d="M56.5307 20.9856H55.2425C55.1595 20.9856 55.1477 21.0214 55.124 21.121L53.8358 26.2857C53.8121 26.3972 53.7923 26.441 53.7014 26.441C53.6263 26.441 53.6066 26.3972 53.5829 26.2857L52.2947 21.121C52.271 21.0175 52.2591 20.9856 52.1761 20.9856H50.8879C50.8049 20.9856 50.7615 21.0214 50.7773 21.121L52.1919 26.676C52.429 27.6237 52.6306 27.7073 53.7093 27.7073C54.7881 27.7073 55.0133 27.6118 55.2425 26.676L56.6414 21.121C56.6572 21.0175 56.6177 20.9856 56.5307 20.9856Z" fill="white"/>
<path d="M61.806 20.9856H57.4198C57.3368 20.9856 57.2934 21.0374 57.2934 21.121V27.5321C57.2934 27.6277 57.3368 27.6675 57.4198 27.6675H61.806C61.889 27.6675 61.9404 27.6237 61.9404 27.5401V26.4211C61.9404 26.3375 61.889 26.2937 61.806 26.2937H58.8582V25.0035H61.561C61.644 25.0035 61.6954 24.9597 61.6954 24.8761V23.8169C61.6954 23.7332 61.644 23.6894 61.561 23.6894H58.8582V22.3594H61.806C61.889 22.3594 61.9404 22.3156 61.9404 22.232V21.113C61.9404 21.0294 61.889 20.9856 61.806 20.9856Z" fill="white"/>
<path d="M67.0774 26.2937H64.4417V21.121C64.4417 21.0374 64.3982 20.9856 64.3153 20.9856H63.0033C62.9204 20.9856 62.8769 21.0374 62.8769 21.121V27.5321C62.8769 27.6277 62.9204 27.6675 63.0033 27.6675H67.0774C67.1604 27.6675 67.2038 27.6237 67.2038 27.5401V26.4211C67.2038 26.3375 67.1604 26.2937 67.0774 26.2937Z" fill="white"/>
<path d="M70.3611 20.9338C68.1601 20.9338 67.5397 21.7103 67.5397 24.3306C67.5397 26.9508 68.1561 27.7113 70.3611 27.7113C72.5661 27.7113 73.1904 26.9348 73.1904 24.3306C73.1904 21.7263 72.5621 20.9338 70.3611 20.9338ZM70.3611 26.3375C69.3456 26.3375 69.1243 25.8437 69.1243 24.3306C69.1243 22.8174 69.3456 22.3077 70.3611 22.3077C71.3766 22.3077 71.5979 22.8014 71.5979 24.3306C71.5979 25.8597 71.3846 26.3375 70.3611 26.3375Z" fill="white"/>
<path d="M76.7152 20.9338C75.9091 20.9338 75.0635 20.9697 74.2336 21.0374C74.1309 21.0453 74.1072 21.0732 74.1072 21.1568V27.5321C74.1072 27.6436 74.1309 27.6675 74.2336 27.6675H75.5455C75.6483 27.6675 75.672 27.6436 75.672 27.5321V25.2863H76.7152C78.5448 25.2863 79.1731 24.8761 79.1731 23.1797C79.1731 21.4834 78.5448 20.9338 76.7152 20.9338ZM76.5453 24.1076H75.672V22.3077H76.5453C77.3593 22.3077 77.5806 22.5307 77.5806 23.2315C77.5806 23.9323 77.3593 24.1115 76.5453 24.1115V24.1076Z" fill="white"/>
<path d="M84.4563 20.9856H80.0701C79.9871 20.9856 79.9436 21.0374 79.9436 21.121V27.5321C79.9436 27.6277 79.9871 27.6675 80.0701 27.6675H84.4563C84.5392 27.6675 84.5906 27.6237 84.5906 27.5401V26.4211C84.5906 26.3375 84.5392 26.2937 84.4563 26.2937H81.5084V25.0035H84.2113C84.2943 25.0035 84.3456 24.9597 84.3456 24.8761V23.8169C84.3456 23.7332 84.2943 23.6894 84.2113 23.6894H81.5084V22.3594H84.4563C84.5392 22.3594 84.5906 22.3156 84.5906 22.232V21.113C84.5906 21.0294 84.5392 20.9856 84.4563 20.9856Z" fill="white"/>
<path d="M90.7748 27.4963L89.3364 25.1827C90.2611 24.9796 90.589 24.4301 90.589 23.1757C90.589 21.4953 89.9607 20.9298 88.1312 20.9298C87.3251 20.9298 86.4794 20.9656 85.6496 21.0333C85.5469 21.0413 85.5232 21.0692 85.5232 21.1528V27.5281C85.5232 27.6396 85.5469 27.6635 85.6496 27.6635H86.9615C87.0643 27.6635 87.088 27.6396 87.088 27.5281V25.2822H87.6293L89.0084 27.4763C89.0914 27.6038 89.1507 27.6635 89.3483 27.6635H90.6681C90.7945 27.6635 90.838 27.5878 90.7708 27.4923L90.7748 27.4963ZM87.9613 24.1075H87.088V22.3076H87.9613C88.7753 22.3076 88.9966 22.5306 88.9966 23.2315C88.9966 23.9323 88.7753 24.1115 87.9613 24.1115V24.1075Z" fill="white"/>
</g>
<defs>
<clipPath id="clip0_3994_2207">
<rect width="91" height="40" fill="white"/>
</clipPath>
</defs>
</svg>
